<svg width="30" height="30" viewBox="0 0 30 30" fill="none" xmlns="http://www.w3.org/2000/svg">
<path d="M29.5 0.5H0.5V29.5H29.5V0.5Z" stroke="white"/>
<path d="M27.8571 25.4286H2.14286C0.961607 25.4286 0 24.467 0 23.2857V6.14286C0 4.96161 0.961607 4 2.14286 4H27.8571C29.0384 4 30 4.96161 30 6.14286V23.2857C30 24.467 29.0384 25.4286 27.8571 25.4286ZM2.14286 5.07143C1.55223 5.07143 1.07143 5.55223 1.07143 6.14286V23.2857C1.07143 23.8763 1.55223 24.3571 2.14286 24.3571H27.8571C28.4478 24.3571 28.9286 23.8763 28.9286 23.2857V6.14286C28.9286 5.55223 28.4478 5.07143 27.8571 5.07143H2.14286Z" fill="#3A3A3C"/>
<path d="M15.0001 18.8687C14.451 18.8687 13.9032 18.6597 13.4854 18.2419L2.83541 7.5932C2.62648 7.38427 2.62648 7.04543 2.83541 6.83516C3.04434 6.62623 3.38452 6.62623 3.59345 6.83516L14.2421 17.4838C14.4443 17.6861 14.7135 17.7972 15.0001 17.7972C15.2867 17.7972 15.5559 17.6861 15.7581 17.4838L26.4068 6.83516C26.6157 6.62623 26.9559 6.62623 27.1648 6.83516C27.3738 7.04409 27.3738 7.38293 27.1648 7.5932L16.5162 18.2419C16.097 18.6597 15.5492 18.8687 15.0001 18.8687Z" fill="#3A3A3C"/>
<path d="M26.7857 22.7499C26.6491 22.7499 26.5112 22.6977 26.4067 22.5932L18.9067 15.0932C18.6978 14.8843 18.6978 14.5454 18.9067 14.3352C19.1156 14.1262 19.4558 14.1262 19.6647 14.3352L27.1647 21.8352C27.3737 22.0441 27.3737 22.3829 27.1647 22.5932C27.0603 22.6977 26.9223 22.7499 26.7857 22.7499Z" fill="#3A3A3C"/>
<path d="M3.21443 22.7499C3.07782 22.7499 2.93987 22.6977 2.83541 22.5932C2.62648 22.3843 2.62648 22.0454 2.83541 21.8352L10.3354 14.3352C10.5443 14.1262 10.8845 14.1262 11.0934 14.3352C11.3023 14.5441 11.3023 14.8829 11.0934 15.0932L3.59345 22.5932C3.48898 22.6977 3.35103 22.7499 3.21443 22.7499Z" fill="#3A3A3C"/>
</svg>
