<svg width="23" height="27" viewBox="0 0 23 27" fill="none" xmlns="http://www.w3.org/2000/svg">
<path d="M11.5 13C15.0899 13 18 10.0899 18 6.5C18 2.91015 15.0899 0 11.5 0C7.91015 0 5 2.91015 5 6.5C5 10.0899 7.91015 13 11.5 13Z" fill="black"/>
<path d="M7.62991 13.4062H7.08009C5.20809 14.5295 4.37131 15.6526 3.29762 17.0938C3.20625 17.2164 3.11317 17.3413 3.01759 17.4688C1.79879 19.0938 1.39255 20.3125 0.986341 22.3438C0.986341 22.3438 1.0077 22.3769 1.02484 22.3925C0.567383 24.297 1.94853 26.4062 4.194 26.4062H12.4035C15.2808 26.4062 16.7389 22.9431 14.7281 20.885L14.3415 14.0371C13.4876 14.4151 12.5427 14.625 11.5488 14.625C10.0935 14.625 8.74331 14.175 7.62991 13.4062Z" fill="black"/>
<path d="M15.4467 13.4062H16.0196C17.9701 14.5295 18.842 15.6526 19.9607 17.0938C20.0559 17.2164 20.1529 17.3413 20.2525 17.4688C21.5224 19.0938 21.9457 20.3125 22.369 22.3438C22.369 22.3438 22.3467 22.3769 22.3288 22.3925C22.8055 24.297 21.3664 26.4062 19.0268 26.4062H10.4729C7.47495 26.4062 5.95566 22.9431 8.0508 20.885L8.45368 14.0371C9.3434 14.4151 10.3279 14.625 11.3635 14.625C12.8798 14.625 14.2866 14.175 15.4467 13.4062Z" fill="black"/>
</svg>
